<?xml version="1.0" standalone="no"?>
<!DOCTYPE svg PUBLIC "-//W3C//DTD SVG 20010904//EN"
 "http://www.w3.org/TR/2001/REC-SVG-20010904/DTD/svg10.dtd">
<svg version="1.0" xmlns="http://www.w3.org/2000/svg"
 width="609.000000pt" height="609.000000pt" viewBox="0 0 609.000000 609.000000"
 preserveAspectRatio="xMidYMid meet">
<metadata>
Created by potrace 1.14, written by Peter Selinger 2001-2017
</metadata>
<g transform="translate(0.000000,609.000000) scale(0.100000,-0.100000)"
fill="#000000" stroke="none">
<path d="M3368 6048 c-38 -51 -40 -57 -26 -71 23 -23 49 -28 64 -13 8 8 14 17
14 21 0 3 9 15 19 27 19 20 19 20 -6 44 -14 13 -29 24 -33 24 -4 0 -19 -15
-32 -32z"/>
<path d="M4748 5967 c-25 -20 -29 -44 -7 -50 30 -8 59 4 59 24 0 25 -33 42
-52 26z"/>
<path d="M1014 5834 c-16 -14 -36 -29 -44 -34 -11 -7 -12 -13 -2 -34 15 -33
30 -33 81 1 42 27 52 54 28 76 -20 19 -32 17 -63 -9z"/>
<path d="M4285 5747 c-23 -26 -25 -36 -14 -61 7 -14 16 -27 21 -27 18 -3 23
-5 33 -10 6 -2 48 -5 95 -4 l85 0 3 38 3 37 -80 0 c-70 0 -83 3 -93 20 -14 22
-38 25 -53 7z"/>
<path d="M1141 5582 c-5 -10 -6 -24 -1 -32 4 -8 10 -32 14 -52 8 -45 17 -52
57 -43 30 7 30 8 24 53 -3 25 -10 53 -15 62 -5 10 -6 20 -3 24 3 3 -10 6 -30
6 -25 0 -39 -6 -46 -18z"/>
<path d="M1336 5584 c-4 -10 0 -22 11 -30 27 -20 53 -17 53 6 0 13 -7 20 -18
20 -10 0 -23 5 -29 11 -7 7 -12 5 -17 -7z"/>
<path d="M3122 5588 c-12 -12 -17 -60 -6 -70 10 -10 45 4 40 17 -2 6 0 18 4
25 5 8 3 19 -5 27 -17 16 -18 16 -33 1z"/>
<path d="M1013 5543 c-13 -9 -23 -22 -23 -29 0 -8 -8 -15 -17 -16 -33 -2 -38
-4 -53 -13 -17 -11 -20 -56 -5 -67 6 -4 34 -5 63 -1 47 5 52 4 52 -13 0 -11
-18 -54 -40 -97 -44 -84 -47 -101 -25 -124 14 -13 18 -13 40 1 14 9 25 23 25
30 0 17 31 78 45 88 6 4 7 8 2 8 -4 0 2 18 13 40 15 30 18 45 11 59 -6 10 -13
34 -15 52 -13 91 -30 110 -73 82z"/>
<path d="M1590 5551 c-8 -5 -37 -20 -65 -33 -53 -27 -64 -47 -45 -83 9 -16 18
-21 34 -17 11 3 23 8 26 11 10 12 50 31 65 31 8 0 15 5 15 10 0 6 6 10 14 10
20 0 45 32 29 37 -7 3 -13 13 -13 24 0 20 -31 25 -60 10z"/>
<path d="M3238 5547 c-21 -8 -28 -18 -28 -39 0 -15 5 -28 12 -28 6 0 9 -3 5
-6 -3 -4 0 -22 8 -41 8 -20 15 -43 15 -53 0 -27 27 -32 66 -14 25 12 32 20 25
27 -6 6 -11 19 -11 29 0 10 -4 18 -10 18 -5 0 -10 9 -10 20 0 32 -24 100 -35
99 -5 -1 -22 -6 -37 -12z"/>
<path d="M2009 5463 c20 -36 63 -73 106 -93 24 -11 46 -20 48 -20 7 0 25 53
25 70 -1 9 -11 17 -22 18 -11 0 -22 6 -24 12 -2 5 -12 10 -23 10 -10 0 -19 5
-19 10 0 16 -30 12 -36 -5 -4 -8 -13 -15 -20 -15 -8 0 -17 7 -20 15 -4 8 -10
15 -15 15 -6 0 -6 -7 0 -17z"/>
<path d="M4245 5472 c-32 -6 -40 -25 -37 -90 l4 -62 39 0 39 0 0 66 c0 70 -12
92 -45 86z"/>
<path d="M2883 5419 c-3 -16 -6 -32 -7 -35 0 -4 8 -8 19 -9 169 -17 165 -18
174 7 13 34 -8 50 -71 54 -29 2 -66 5 -81 8 -24 3 -29 -1 -34 -25z"/>
<path d="M4687 5424 c-4 -5 21 -64 28 -64 1 0 5 9 8 20 3 11 1 18 -4 14 -5 -3
-9 2 -9 10 0 16 -14 29 -23 20z"/>
<path d="M5131 5320 l2 -60 39 0 38 0 0 60 0 60 -41 0 -40 0 2 -60z"/>
<path d="M4796 5342 c-3 -3 -6 -22 -6 -42 l0 -38 90 -1 c88 -2 90 -1 100 24
11 30 4 53 -18 58 -25 7 -160 6 -166 -1z"/>
<path d="M5850 5317 c-14 -7 -25 -17 -25 -22 0 -23 57 -154 69 -158 23 -9 61
17 59 41 -4 29 -60 152 -70 152 -4 0 -19 -6 -33 -13z"/>
<path d="M4971 5237 c-19 -42 -19 -42 3 -59 35 -29 53 -22 69 27 16 47 16 48
-27 65 -25 9 -28 7 -45 -33z"/>
<path d="M2595 5165 c-11 -8 -17 -15 -12 -16 14 -3 22 -6 40 -14 27 -11 33 3
11 25 -18 18 -22 19 -39 5z"/>
<path d="M4721 5133 c-26 -100 -25 -107 10 -120 39 -15 46 -10 56 41 8 36 10
38 25 23 23 -23 43 -21 61 7 15 22 14 25 -7 45 -24 22 -46 28 -46 11 0 -5 -5
-10 -11 -10 -5 0 -8 4 -4 9 7 12 -1 17 -42 25 -30 7 -32 6 -42 -31z"/>
<path d="M1055 5140 c-3 -11 -10 -20 -15 -20 -5 0 -8 -9 -7 -20 1 -11 5 -20
10 -20 6 0 18 -9 28 -21 9 -11 19 -19 21 -18 2 2 15 -5 29 -14 29 -19 56 -14
62 11 5 24 -13 62 -30 62 -7 0 -13 5 -13 10 0 6 -6 10 -13 10 -7 0 -19 9 -27
20 -8 11 -20 20 -27 20 -6 0 -15 -9 -18 -20z"/>
<path d="M636 5142 c-3 -3 -6 -20 -6 -38 0 -30 3 -33 38 -39 52 -8 66 -4 74
23 10 36 -1 52 -36 53 -17 0 -39 2 -48 4 -9 2 -19 0 -22 -3z"/>
<path d="M2887 5070 c-17 -28 -17 -28 18 -54 19 -15 35 -24 35 -21 0 3 10 -3
22 -15 29 -27 45 -25 62 8 17 33 10 40 -85 91 l-36 20 -16 -29z"/>
<path d="M1619 5075 c-1 -3 -1 -17 -2 -32 -1 -41 27 -37 31 5 2 24 -1 32 -12
32 -9 0 -16 -2 -17 -5z"/>
<path d="M3141 5061 c-31 -20 -16 -74 22 -80 30 -5 42 63 14 81 -15 10 -19 10
-36 -1z"/>
<path d="M3925 4970 c6 -39 25 -66 25 -34 -1 10 -8 30 -16 44 l-15 25 6 -35z"/>
<path d="M3501 4898 l-23 -41 23 -18 c33 -26 41 -24 67 16 27 42 27 54 5 71
-30 22 -47 16 -72 -28z"/>
<path d="M4916 4931 c-8 -12 3 -19 43 -26 27 -5 32 -3 29 12 -4 20 -62 31 -72
14z"/>
<path d="M1150 4911 c-8 -5 -31 -11 -50 -13 -66 -9 -84 -31 -64 -82 7 -17 54
-22 54 -6 0 6 16 10 36 10 19 0 42 7 50 15 13 13 13 18 0 43 -8 16 -12 32 -9
36 9 8 1 7 -17 -3z"/>
<path d="M5614 4896 c-32 -34 -33 -49 -6 -72 l24 -21 39 35 c21 20 39 37 39
38 0 0 -8 11 -19 22 -23 28 -50 27 -77 -2z"/>
<path d="M4010 4875 c0 -40 2 -41 24 -19 12 12 13 20 6 35 -16 30 -30 23 -30
-16z"/>
<path d="M3206 4868 c-9 -10 -14 -18 -11 -18 2 0 -3 -16 -11 -35 -19 -46 -19
-48 16 -63 21 -10 30 -21 31 -38 1 -13 2 -30 3 -36 0 -7 17 -14 37 -16 41 -3
50 8 42 51 -5 23 -10 27 -40 27 -31 0 -34 2 -27 23 3 12 10 27 14 32 8 10 13
47 11 71 -2 21 -48 22 -65 2z"/>
<path d="M4532 4872 c5 -18 0 -23 -33 -32 -21 -6 -39 -13 -39 -16 0 -3 14 -36
31 -72 17 -37 45 -96 61 -132 17 -36 33 -69 36 -74 3 -6 -3 -6 -14 -1 -10 4
-73 27 -139 51 -121 44 -132 44 -136 4 -2 -16 -5 -32 -9 -40 -7 -19 -9 -50 -2
-51 4 0 21 -2 37 -4 17 -2 58 -6 92 -8 33 -3 67 -8 74 -12 8 -6 10 -4 4 5 -6
9 -4 11 5 5 7 -4 26 -8 41 -7 16 0 29 -2 29 -5 0 -7 -31 -35 -84 -78 -21 -16
-49 -40 -62 -52 -14 -13 -30 -23 -35 -23 -6 0 -7 -4 -4 -10 3 -5 2 -10 -4 -10
-20 0 -42 -32 -31 -45 8 -9 4 -16 -12 -28 -13 -8 -33 -23 -45 -33 -12 -11 -34
-28 -49 -39 -16 -11 -42 -31 -59 -45 -68 -57 -69 -58 -62 -31 5 19 1 25 -24
34 -16 6 -29 15 -29 19 0 4 -7 8 -15 8 -18 0 -35 -31 -35 -64 0 -21 5 -26 24
-26 49 0 43 -20 -24 -70 -18 -14 -38 -29 -44 -35 -6 -5 -32 -26 -56 -45 -25
-19 -52 -40 -60 -47 -8 -7 -44 -35 -80 -63 -36 -28 -74 -58 -85 -68 -11 -9
-21 -15 -23 -13 -2 1 -14 -9 -27 -23 -13 -14 -28 -26 -34 -26 -5 0 -11 -3 -13
-7 -1 -5 -30 -30 -63 -56 -33 -26 -67 -54 -76 -61 -9 -8 -22 -10 -28 -6 -14 8
29 40 54 40 9 0 13 5 10 10 -3 6 0 10 9 10 16 0 15 13 -3 51 -14 29 -31 31
-58 7 -39 -34 -60 -32 -87 11 -14 21 -30 42 -36 46 -6 3 -8 11 -5 16 4 5 -1 9
-9 9 -9 0 -16 6 -16 14 0 8 -7 17 -16 20 -8 3 -12 10 -9 16 3 5 1 10 -6 10 -7
0 -25 14 -41 32 -15 17 -34 33 -41 35 -6 1 -36 11 -65 21 -66 24 -149 21 -198
-6 -12 -6 -24 -8 -28 -5 -3 3 -6 1 -6 -5 0 -7 -5 -12 -10 -12 -6 0 -28 -11
-50 -25 -22 -14 -40 -22 -40 -18 0 5 -4 3 -8 -2 -4 -6 -20 -21 -37 -33 -77
-58 -193 -162 -180 -162 2 0 -12 -18 -31 -39 -20 -21 -45 -56 -56 -77 -11 -22
-23 -41 -27 -44 -4 -3 -19 -32 -33 -65 -41 -93 -51 -118 -55 -144 -2 -14 -9
-33 -14 -43 -5 -10 -8 -22 -5 -27 9 -14 -15 -27 -89 -46 -38 -10 -74 -22 -79
-26 -5 -4 -15 -5 -22 -2 -8 3 -14 0 -14 -7 0 -6 -4 -8 -10 -5 -5 3 -10 2 -10
-3 0 -6 -9 -8 -20 -5 -11 3 -20 1 -20 -5 0 -5 -12 -12 -27 -15 -38 -8 -89 -41
-107 -70 -9 -13 -19 -50 -23 -83 -13 -105 -7 -359 10 -449 4 -22 2 -24 -68
-80 -68 -53 -123 -104 -223 -205 -79 -79 -85 -83 -98 -65 -13 17 -11 22 13 48
l28 29 -30 24 c-16 13 -34 24 -38 24 -5 0 -5 5 -2 11 11 17 -16 69 -36 69 -10
0 -21 -5 -24 -10 -4 -7 -13 -7 -26 0 -11 6 -17 15 -14 21 4 5 1 9 -4 9 -6 0
-11 7 -11 15 0 8 -5 15 -11 15 -5 0 -7 5 -4 10 3 6 -1 17 -9 26 -22 22 -20 67
3 84 11 7 18 17 15 21 -2 4 3 14 11 23 21 21 20 24 -10 48 -29 22 -29 22 -70
-37 -15 -22 -25 -34 -23 -26 2 8 -3 22 -11 31 -26 28 -51 60 -51 66 0 3 -6 11
-12 19 -7 7 -29 32 -48 55 -45 55 -158 168 -211 211 -22 19 -51 42 -62 52 -12
10 -34 26 -50 35 -30 18 -35 32 -12 32 8 0 15 4 15 8 0 5 12 15 27 23 40 21
73 51 73 67 0 19 -25 42 -45 42 -17 0 -77 -38 -83 -52 -2 -4 -9 -8 -17 -8 -7
0 -18 -7 -25 -15 -11 -13 -9 -21 9 -46 21 -29 22 -29 2 -17 -12 7 -21 16 -21
21 0 4 -4 5 -10 2 -5 -3 -10 -2 -10 2 0 8 -24 14 -65 15 -57 2 -64 -2 -150
-80 -73 -66 -67 -64 -112 -42 -53 25 -80 22 -88 -9 -6 -25 14 -51 41 -51 6 0
17 -7 24 -15 9 -11 9 -15 1 -15 -7 0 -10 -4 -7 -9 3 -5 -1 -11 -9 -14 -8 -4
-31 -31 -51 -62 -20 -30 -40 -55 -44 -55 -5 0 -13 -13 -19 -30 -5 -16 -15 -30
-21 -30 -6 0 -9 -4 -6 -9 3 -5 -2 -19 -12 -32 -10 -13 -27 -42 -37 -64 -11
-22 -24 -43 -30 -47 -5 -4 -7 -8 -3 -8 4 0 -1 -16 -12 -35 -19 -33 -19 -59
-20 -670 0 -349 4 -643 9 -652 4 -10 21 -43 36 -73 15 -30 38 -74 51 -97 22
-40 22 -43 5 -43 -10 0 -28 -8 -40 -18 -41 -33 1 -88 49 -62 11 6 20 8 20 4 0
-3 7 0 17 7 12 10 17 11 20 2 2 -6 12 -20 21 -31 9 -11 24 -30 32 -42 8 -12
20 -28 27 -35 7 -7 9 -16 5 -20 -4 -4 0 -5 8 -3 9 2 16 -6 18 -21 3 -19 6 -21
13 -10 6 10 9 11 9 1 0 -7 15 -27 32 -45 18 -17 32 -35 31 -39 -2 -4 1 -8 6
-8 5 0 25 -16 44 -35 19 -19 37 -31 41 -28 3 3 6 -1 6 -10 0 -10 7 -17 15 -17
8 0 15 -4 15 -8 0 -10 124 -102 137 -102 5 0 15 -9 23 -19 7 -11 17 -18 21
-16 4 3 9 -2 13 -10 3 -8 12 -12 21 -9 8 3 15 1 15 -5 0 -6 6 -10 13 -8 6 1
11 -4 10 -10 -2 -7 0 -13 5 -13 4 0 8 -30 8 -68 2 -66 10 -178 17 -217 4 -20
13 -20 605 -22 387 -2 602 1 602 7 0 6 7 10 15 10 9 0 28 8 42 17 21 14 25 15
18 3 -8 -13 -7 -13 11 0 10 8 25 22 32 30 8 8 11 10 7 3 -6 -14 76 26 87 42 5
7 8 7 8 0 0 -5 5 -2 11 8 6 9 14 15 20 12 5 -4 9 -2 9 3 0 5 8 13 18 16 36 13
72 37 72 48 0 6 3 9 6 5 4 -3 12 -1 20 6 33 29 42 35 47 31 3 -3 11 4 17 16 6
12 14 19 17 17 3 -3 18 6 33 21 69 66 90 82 101 82 7 0 9 3 6 6 -4 4 3 15 15
25 11 11 18 19 13 19 -4 0 -2 6 4 13 6 8 8 17 4 20 -3 4 -2 7 4 7 9 0 7 51 -4
80 -4 8 -5 19 -4 23 1 5 -3 6 -8 3 -5 -3 -19 9 -31 28 -31 45 -78 75 -121 77
-39 3 -114 -35 -139 -70 -8 -12 -18 -21 -23 -21 -4 0 -18 -10 -31 -23 -24 -22
-135 -104 -167 -122 -73 -41 -98 -53 -103 -48 -3 4 -6 1 -6 -5 0 -11 -99 -62
-133 -68 -10 -2 -28 -11 -40 -19 -12 -7 -25 -14 -30 -14 -16 -1 -63 -13 -82
-22 -11 -5 -31 -11 -45 -13 -14 -3 -39 -9 -57 -15 -17 -5 -34 -7 -36 -4 -3 2
-14 0 -24 -5 -29 -15 -127 -24 -295 -27 -105 -2 -158 1 -158 8 0 6 -3 7 -7 4
-10 -10 -34 14 -26 26 9 14 10 57 2 57 -7 0 -4 37 6 63 4 10 3 17 -5 17 -6 0
-8 5 -3 13 4 6 8 28 9 47 4 87 8 126 17 144 7 14 6 16 -4 11 -8 -6 -10 -4 -4
5 8 12 11 35 14 83 1 11 6 15 12 11 8 -5 8 -1 0 14 -7 13 -7 23 -1 27 5 3 7
12 3 20 -3 8 -1 15 5 15 6 0 8 9 5 20 -3 13 0 20 8 20 11 0 11 2 -1 10 -8 5
-10 10 -4 10 10 0 14 12 15 52 0 10 4 20 9 23 5 3 7 12 3 20 -3 8 -1 15 4 15
9 0 11 6 15 50 1 11 6 20 11 20 4 0 6 3 4 8 -3 4 36 5 86 2 51 -3 97 -4 104
-2 6 2 13 20 15 41 l3 38 -80 3 c-107 3 -105 3 -105 6 0 1 7 10 16 18 10 10
11 16 3 16 -8 0 -8 4 -2 13 6 6 16 29 22 50 7 20 17 37 22 37 6 0 9 6 7 13 -1
6 6 27 15 44 10 18 15 33 12 33 -5 0 7 17 31 43 6 6 9 20 6 31 -3 12 -1 17 5
13 10 -6 27 27 24 46 -1 4 6 10 14 13 8 4 15 14 15 24 0 10 7 21 16 24 8 3 13
10 9 16 -3 5 3 18 15 30 11 11 20 25 20 30 0 6 5 10 12 10 6 0 9 3 5 6 -5 5
10 27 41 59 6 8 12 18 12 24 0 6 4 11 10 11 5 0 16 13 24 28 8 15 32 47 54 70
21 23 36 45 33 49 -3 5 9 -5 26 -21 l33 -29 25 27 c25 27 26 46 0 46 -18 0
-26 25 -12 40 9 10 9 11 -3 5 -8 -4 5 12 30 36 25 25 47 44 50 43 10 -2 38 35
32 42 -4 4 1 4 11 1 10 -4 16 -3 13 2 -3 4 6 17 19 29 l24 21 20 -27 c10 -15
19 -31 19 -35 0 -4 6 -22 13 -40 6 -18 11 -35 10 -39 0 -5 4 -8 9 -8 6 0 10
-9 10 -20 0 -11 3 -20 8 -20 4 0 18 -23 31 -52 13 -28 28 -57 32 -62 5 -6 30
-42 55 -81 44 -66 59 -86 122 -164 47 -59 220 -231 232 -231 6 0 8 -5 5 -10
-3 -5 -1 -10 6 -10 10 0 106 -74 120 -93 3 -5 8 -8 10 -6 5 3 113 -66 131 -84
19 -19 100 -58 92 -45 -4 6 10 -1 31 -15 21 -14 42 -24 47 -21 4 3 8 0 8 -5 0
-6 9 -11 21 -11 11 0 27 -7 36 -15 8 -8 18 -13 23 -10 4 2 28 -13 53 -35 41
-36 87 -53 87 -32 0 13 33 11 49 -2 12 -9 13 -8 6 3 -6 11 -5 12 6 5 14 -8 19
-10 49 -16 8 -2 20 -7 27 -11 6 -4 19 -4 29 0 11 4 15 3 10 -5 -4 -7 1 -9 16
-7 12 3 26 -1 30 -8 6 -9 8 -9 8 1 0 8 5 10 13 5 14 -9 23 -10 101 -17 32 -3
60 -7 62 -8 3 -3 -42 -93 -98 -200 -13 -26 -37 -63 -52 -82 -15 -20 -24 -41
-21 -46 3 -6 2 -10 -3 -10 -5 0 -27 -25 -47 -55 -21 -30 -42 -55 -47 -55 -5 0
-7 -4 -4 -8 3 -5 -4 -15 -15 -23 -11 -8 -27 -29 -36 -46 -8 -18 -22 -33 -30
-33 -8 0 -12 -4 -9 -8 3 -5 -3 -16 -13 -24 -11 -9 -23 -22 -27 -30 -5 -7 -22
-23 -37 -35 -15 -12 -28 -24 -27 -27 0 -4 -20 -26 -45 -50 -25 -25 -45 -43
-45 -41 0 2 -17 -13 -39 -35 -21 -21 -41 -37 -44 -34 -2 3 -7 -2 -10 -11 -6
-13 22 -15 236 -15 256 0 289 3 280 26 -3 8 4 18 18 23 13 5 21 10 17 10 -5 1
2 11 14 23 13 13 27 22 31 20 5 -1 6 2 2 8 -3 5 -1 10 6 10 7 0 9 3 6 7 -4 3
5 17 19 30 14 12 21 23 17 23 -4 0 1 7 11 15 11 8 16 15 10 15 -5 0 -4 4 2 8
5 4 25 28 44 54 18 27 37 48 42 48 4 0 7 3 6 7 -3 13 25 63 34 63 5 0 6 5 3
10 -3 6 -1 10 5 10 6 0 9 4 6 9 -3 5 1 12 10 15 8 3 13 10 10 15 -3 5 1 12 10
15 8 3 13 10 9 15 -3 6 5 20 17 32 13 12 18 19 11 15 -8 -4 -8 0 0 18 7 13 16
22 21 19 5 -4 7 1 3 9 -3 9 2 23 13 33 11 10 18 20 18 24 -3 11 26 81 34 81 4
0 7 3 6 7 -3 16 15 63 24 63 5 0 7 4 3 9 -3 5 -1 12 5 16 6 4 8 11 5 16 -4 5
-1 9 5 9 6 0 9 4 5 9 -3 5 0 13 6 16 5 4 8 12 6 19 -4 9 7 12 34 10 21 -1 39
1 39 5 0 4 8 7 18 8 67 7 136 24 144 37 5 7 8 6 8 -3 0 -9 4 -10 13 -4 13 11
67 27 80 25 4 -1 7 3 7 9 0 5 4 8 8 5 4 -2 26 4 49 14 23 10 44 16 47 12 3 -3
6 0 6 7 0 7 4 10 9 6 5 -3 16 1 24 9 8 8 17 12 21 9 3 -4 6 -1 6 6 0 7 5 9 10
6 6 -3 10 -2 10 4 0 5 8 17 17 27 10 9 18 26 18 38 0 12 4 27 8 34 5 7 4 12
-3 12 -7 0 -8 6 -2 18 5 9 9 78 8 154 -1 88 3 134 9 130 6 -3 5 1 -2 9 -10 12
-4 19 30 41 23 15 46 26 51 25 5 -1 12 8 17 20 5 13 15 23 23 23 7 0 17 7 20
16 3 8 9 14 13 12 5 -2 25 13 45 34 21 21 35 38 32 38 -2 0 1 6 8 14 7 8 16
12 21 9 4 -2 7 2 7 10 0 8 7 17 15 21 8 3 15 10 15 16 0 9 19 35 47 65 7 7 9
15 6 19 -4 3 -1 6 5 6 6 0 19 16 28 35 9 19 20 35 25 35 5 0 5 7 2 17 -5 12
-3 14 7 8 10 -6 12 -3 8 13 -4 12 -2 20 3 16 8 -5 14 17 10 39 -1 5 3 6 9 2 5
-3 11 -1 11 4 2 12 5 26 9 39 1 4 2 10 1 15 0 4 3 7 9 7 6 0 9 3 9 8 -1 4 0 9
1 12 1 3 4 18 6 35 3 16 8 32 12 35 8 6 11 22 17 118 3 52 1 72 -8 72 -7 0 -6
4 3 10 10 6 11 10 2 10 -6 0 -12 3 -11 8 2 15 -14 52 -22 52 -5 0 -9 6 -9 14
0 8 -9 18 -20 21 -11 4 -18 11 -15 16 4 5 -1 9 -9 9 -9 0 -16 5 -16 10 0 6 -9
10 -20 10 -11 0 -20 4 -20 8 0 7 -28 21 -95 47 -11 5 -23 9 -27 9 -13 2 -21
16 -9 16 8 0 11 13 9 37 -3 35 -5 37 -43 41 -22 2 -42 7 -45 10 -3 4 -24 9
-47 10 -38 3 -43 1 -43 -17 0 -21 -39 -46 -50 -32 -7 9 -53 14 -140 15 -73 1
-95 9 -82 30 3 6 7 22 8 36 3 27 10 100 20 183 4 28 8 63 9 77 2 14 4 25 5 25
1 0 3 20 5 45 2 25 4 45 5 45 1 0 4 20 6 45 9 98 12 125 14 125 1 0 3 14 5 30
2 27 10 89 21 180 4 32 9 78 18 160 3 28 9 66 12 85 3 19 8 60 10 90 1 30 4
56 5 58 3 4 5 18 13 87 5 39 10 79 12 90 2 11 6 45 9 75 3 30 7 69 9 85 4 30
17 125 20 157 3 22 12 32 14 16 2 -23 13 -82 23 -121 5 -20 7 -42 4 -47 -3 -6
-2 -10 4 -10 6 0 8 -6 6 -12 -3 -7 -1 -19 4 -27 7 -11 18 -10 67 4 33 9 62 21
65 26 3 5 -23 66 -58 135 -35 69 -63 130 -63 135 0 5 12 4 28 -2 15 -7 36 -15
47 -20 11 -4 49 -17 85 -29 36 -12 72 -24 80 -27 26 -11 45 -9 46 5 1 6 2 13
4 15 8 10 13 71 11 132 -1 39 -2 40 -41 42 -37 1 -40 0 -46 -33 l-6 -35 -77 7
c-42 3 -84 6 -93 6 -18 -1 -25 24 -9 30 12 4 88 66 123 100 15 15 28 24 28 21
0 -4 6 1 13 10 11 16 15 16 62 1 28 -8 60 -20 71 -26 32 -15 57 -6 65 24 8 32
0 40 -56 58 -22 7 -53 17 -68 23 -21 7 -31 7 -36 -1 -4 -7 -20 2 -44 25 -37
35 -38 35 -59 17 -15 -14 -22 -16 -25 -6 -5 13 -72 17 -74 5 -9 -61 -6 -72 18
-75 24 -3 23 -5 -28 -78 l-53 -75 -8 35 c-5 19 -11 44 -14 55 -3 11 -6 29 -8
40 -2 11 -6 35 -10 53 -7 28 -5 32 12 32 35 0 33 28 -4 50 -18 12 -34 26 -34
31 0 6 -8 5 -20 -1 -16 -8 -20 -8 -20 4 0 8 -5 18 -12 22 -7 5 -9 0 -6 -14z
m-1499 -1284 c48 -50 58 -73 57 -128 -2 -82 -3 -80 35 -80 29 0 36 -4 41 -25
5 -19 0 -30 -17 -44 -13 -10 -29 -17 -35 -14 -7 2 -15 -5 -19 -16 -3 -11 -27
-38 -52 -60 -39 -33 -51 -38 -87 -36 -46 4 -81 11 -95 20 -5 3 -30 9 -55 14
-33 6 -49 5 -56 -4 -14 -17 -55 -24 -72 -14 -9 6 -9 9 -1 9 6 0 10 9 8 20 -2
11 0 20 4 20 5 0 11 8 15 18 7 21 39 76 56 97 7 8 9 15 4 15 -5 0 2 6 16 13
14 8 25 18 24 23 -1 5 21 30 48 56 47 46 59 48 37 6 -10 -18 -8 -25 11 -40 12
-10 26 -16 31 -13 4 3 5 -32 2 -77 l-6 -83 31 0 c39 0 54 15 57 57 1 18 5 56
9 83 l6 50 -40 19 c-22 11 -40 23 -40 28 0 4 -9 8 -20 8 -11 0 -20 5 -20 10 0
6 7 10 16 10 8 0 13 4 10 8 -2 4 4 14 16 21 16 10 19 10 13 -1 -3 -7 0 -5 8 5
8 9 19 17 26 17 6 0 11 5 11 10 0 14 9 13 23 -2z m-98 -692 c11 -2 21 -5 23
-6 2 -3 18 -7 31 -9 19 -2 43 -34 31 -41 -17 -10 87 -100 116 -100 18 0 25 -7
30 -27 8 -36 45 -71 81 -77 15 -2 30 -5 33 -6 3 -1 9 -2 14 -1 5 1 6 -5 3 -14
-4 -8 -2 -15 3 -15 5 0 11 -9 15 -19 6 -20 80 -55 95 -46 6 3 29 -14 52 -39
48 -50 96 -73 147 -72 28 1 42 -6 70 -37 31 -32 43 -38 90 -42 30 -2 57 -9 60
-14 13 -21 74 -39 103 -31 23 7 30 5 39 -13 7 -11 17 -27 23 -34 27 -33 31
-39 33 -51 2 -6 -16 -21 -40 -33 -23 -12 -45 -26 -49 -32 -7 -12 18 -67 30
-67 4 0 29 12 56 26 46 25 49 25 65 7 24 -27 25 -63 1 -63 -22 0 -25 -16 -11
-70 5 -19 12 -48 15 -63 6 -26 10 -28 48 -26 l41 3 19 -59 c11 -33 21 -71 23
-85 6 -34 13 -65 15 -65 1 0 3 -16 5 -35 2 -19 6 -48 10 -65 11 -50 14 -279 3
-298 -5 -10 -16 -16 -24 -13 -8 3 -14 0 -14 -7 0 -8 -4 -6 -10 3 -5 8 -10 10
-10 4 0 -15 -36 -24 -48 -12 -14 14 -78 6 -74 -10 1 -8 -2 -10 -8 -7 -6 4 -20
-1 -30 -10 -18 -16 -57 -26 -112 -29 -16 0 -28 -3 -28 -7 0 -7 -347 -3 -382 5
-16 4 -40 8 -55 11 -65 10 -99 16 -113 22 -8 3 -22 7 -30 7 -8 1 -20 4 -25 8
-6 3 -27 9 -48 13 -20 4 -37 11 -37 16 0 5 -3 8 -7 8 -21 -3 -32 3 -37 19 -5
14 -17 19 -48 20 -22 1 -47 7 -54 13 -8 6 -14 9 -14 5 0 -3 -19 6 -42 21 -24
14 -49 26 -55 26 -7 0 -13 3 -13 7 0 3 -18 16 -40 29 -22 12 -40 26 -40 32 0
5 -6 9 -13 9 -7 0 -28 14 -47 32 -19 17 -36 31 -38 30 -1 -2 -11 6 -21 15 -18
18 -19 32 -6 65 10 25 -24 37 -40 15 -16 -22 -20 -22 -49 8 -14 14 -24 25 -22
25 2 0 -19 24 -45 52 -27 29 -49 56 -49 60 0 8 -22 38 -52 69 -9 9 -14 20 -10
23 3 3 0 6 -6 6 -7 0 -11 3 -10 8 1 4 -9 25 -23 47 -13 22 -23 43 -21 48 1 4
-3 7 -8 7 -6 0 -10 7 -10 15 0 8 -4 15 -10 15 -5 0 -10 9 -10 20 0 11 -4 20
-8 20 -5 0 -9 6 -9 13 0 6 -9 31 -21 55 -11 23 -15 39 -9 35 8 -4 8 -1 -1 9
-17 21 -53 128 -46 139 3 5 0 9 -6 9 -7 0 -10 7 -6 15 3 8 1 15 -5 15 -6 0 -7
5 -4 10 4 6 1 17 -5 25 -10 12 -10 15 1 15 10 0 10 3 3 8 -6 4 -10 15 -8 25 1
9 -1 17 -5 17 -4 0 -8 6 -8 13 -1 6 -2 31 -4 55 -1 23 -6 42 -11 42 -5 0 -4 9
2 20 6 11 7 20 3 20 -11 0 -10 182 1 199 6 9 5 12 -1 8 -5 -3 -10 1 -10 9 0 8
6 13 14 10 7 -3 13 -1 13 4 0 6 9 10 19 10 11 0 23 5 26 11 4 6 13 8 21 5 8
-3 14 -1 14 5 0 6 4 7 10 4 5 -3 20 0 32 6 13 7 34 14 48 15 14 2 36 5 50 8
67 14 110 19 162 20 31 1 55 3 53 6 -4 6 231 2 260 -4z m-2205 -177 c0 -5 4
-8 9 -5 5 3 12 -1 15 -10 3 -8 10 -13 15 -9 5 3 12 -4 16 -15 3 -11 12 -20 18
-20 18 0 187 -182 187 -201 0 -11 -10 -16 -32 -16 -37 -1 -179 -10 -278 -19
-118 -10 -223 -12 -210 -4 7 4 10 12 7 17 -3 5 3 16 14 23 10 8 19 20 19 26 0
7 15 27 33 45 17 18 25 29 17 24 -16 -9 12 28 44 57 10 10 16 18 11 18 -4 0 4
9 19 21 14 11 26 28 26 36 0 9 3 14 6 11 3 -4 14 2 25 13 21 21 39 25 39 8z
m3855 -375 c67 -4 95 -9 95 -14 0 -3 12 -7 26 -8 15 -1 33 -7 39 -12 7 -6 19
-9 26 -8 15 3 16 -16 4 -62 -3 -14 -8 -32 -10 -40 -2 -8 -4 -17 -5 -20 -1 -3
-2 -8 -2 -12 1 -3 -5 -12 -13 -18 -8 -7 -15 -18 -15 -25 0 -19 -30 -75 -41
-75 -5 0 -8 -3 -7 -7 3 -9 -67 -106 -107 -149 -27 -30 -60 -42 -52 -19 3 7 0
18 -6 25 -9 10 -9 11 1 6 6 -4 3 9 -9 28 -12 20 -18 36 -14 36 4 0 2 6 -4 13
-6 8 -8 17 -4 20 3 4 1 7 -5 7 -7 0 -11 3 -10 8 1 4 -3 17 -10 30 -7 12 -10
22 -6 22 4 0 -1 10 -12 22 -13 14 -14 19 -4 14 8 -4 7 -1 -4 8 -10 8 -15 19
-11 25 3 6 1 11 -4 11 -6 0 -11 7 -11 15 0 8 -5 15 -11 15 -5 0 -7 5 -4 10 3
6 1 10 -6 10 -7 0 -9 3 -6 7 4 3 2 12 -4 20 -15 17 -8 17 26 -1 20 -11 34 -12
56 -4 57 20 54 59 -8 100 l-28 18 28 1 c57 3 66 4 73 11 4 4 12 4 18 1 6 -4
24 -8 41 -9z m-3095 -111 c0 -5 -5 -15 -11 -23 -8 -11 -12 -12 -16 -2 -2 6
-10 9 -16 5 -7 -4 -6 1 2 10 14 17 41 23 41 10z m-327 -82 c7 -1 25 -38 31
-66 2 -5 6 -17 9 -25 7 -18 31 -123 29 -130 0 -3 4 -11 10 -17 10 -12 0 -18
-24 -14 -5 0 -8 -3 -8 -8 0 -15 -68 -6 -88 12 -24 22 -31 21 -56 -6 -16 -16
-34 -23 -71 -24 -27 -2 -81 -5 -120 -8 -38 -3 -97 -6 -131 -8 -33 -2 -66 -7
-72 -11 -6 -3 -13 -2 -17 4 -4 6 -12 7 -18 3 -7 -4 -37 -8 -67 -9 -30 -1 -67
-4 -81 -7 -31 -6 -51 4 -47 24 2 10 -9 15 -34 17 -22 2 -39 -1 -39 -7 -1 -6
-3 -15 -4 -21 -1 -5 -3 -13 -4 -17 0 -5 -16 -8 -35 -9 -29 0 -33 2 -32 25 1
14 5 32 9 39 5 7 3 12 -3 12 -6 0 -8 5 -4 11 6 11 13 51 17 97 0 12 4 22 7 22
3 0 7 12 8 26 3 34 11 46 28 40 8 -3 14 0 15 7 0 9 2 9 5 0 3 -7 15 -9 32 -4
15 3 41 6 57 6 17 0 33 4 37 10 5 6 8 5 8 -3 0 -10 5 -10 20 -2 15 8 20 8 20
-2 0 -8 3 -9 8 -3 10 14 32 17 32 4 0 -8 4 -8 13 -2 6 6 37 11 67 12 67 2 82
4 97 14 6 4 15 3 18 -3 5 -8 11 -7 21 1 8 6 14 7 14 2 0 -5 7 -10 15 -10 8 0
15 4 15 8 0 4 8 6 18 4 9 -1 27 1 39 6 13 5 25 4 29 -2 4 -6 11 -6 20 2 11 9
14 9 14 -1 0 -9 3 -10 13 -1 17 14 27 4 27 -25 0 -17 7 -25 25 -30 31 -8 52 8
60 45 6 26 10 28 68 22z m327 -21 c6 -11 8 -20 6 -20 -3 0 -10 9 -16 20 -6 11
-8 20 -6 20 3 0 10 -9 16 -20z m-389 -587 c6 -16 17 -23 33 -23 24 0 25 -2 13
-27 -6 -16 -16 -31 -21 -34 -5 -4 -5 -12 -2 -18 4 -6 3 -11 -2 -11 -5 0 -13
-10 -17 -22 -4 -13 -8 -25 -9 -28 -1 -3 -10 -22 -20 -42 -18 -37 -20 -38 -75
-39 -67 -2 -146 -6 -146 -9 0 -2 -156 -12 -222 -14 -29 0 -53 -3 -53 -6 0 -3
-21 -5 -48 -5 -26 0 -68 -2 -93 -5 l-46 -6 -23 59 c-20 50 -22 60 -9 67 50 29
52 33 32 68 -18 32 -37 41 -48 22 -3 -5 -11 -10 -16 -10 -6 0 -8 4 -5 9 4 5 0
11 -6 14 -10 4 -10 7 -1 17 14 15 38 19 150 22 46 2 83 6 83 9 0 10 34 5 42
-6 5 -6 8 -6 8 2 0 12 3 12 85 -9 22 -5 63 -11 90 -12 28 -1 72 -12 99 -25 27
-12 50 -20 50 -19 1 2 10 15 19 30 21 34 22 48 2 48 -29 0 -15 16 17 18 18 2
33 4 34 5 1 1 24 2 50 2 39 0 48 -4 55 -22z m-254 -578 c13 0 23 2 23 6 0 9
27 6 36 -4 4 -4 16 -7 26 -7 12 0 18 -7 18 -23 0 -13 -3 -27 -7 -31 -4 -3 -8
-14 -9 -24 -9 -59 -12 -73 -18 -79 -3 -3 -1 -11 4 -18 14 -17 -61 -97 -76 -82
-6 7 -24 21 -40 32 -15 11 -44 35 -63 52 -20 18 -39 33 -43 33 -5 0 -8 7 -8
16 0 8 -4 12 -10 9 -5 -3 -10 1 -10 10 0 9 -4 13 -10 10 -5 -3 -10 -3 -10 2 0
4 -14 23 -31 41 -16 17 -27 37 -23 43 4 8 9 7 15 -2 6 -10 9 -10 9 -2 0 8 16
12 50 10 28 -1 50 2 50 7 0 5 7 3 15 -4 9 -8 15 -9 15 -2 0 6 9 9 20 7 11 -2
22 1 25 6 4 5 11 6 18 2 6 -4 21 -7 34 -8z"/>
<path d="M2782 2638 c-20 -21 -33 -23 -134 -31 -16 -1 -28 -5 -28 -9 0 -5 -3
-7 -7 -7 -27 4 -56 -4 -71 -19 -15 -15 -18 -31 -15 -78 3 -61 9 -109 12 -109
2 0 4 -11 7 -25 2 -14 13 -44 24 -67 11 -24 20 -47 20 -52 0 -5 7 -11 15 -15
8 -3 15 -12 15 -20 0 -20 129 -148 141 -140 5 3 8 1 7 -4 -2 -6 0 -9 3 -8 3 0
13 -7 23 -16 10 -10 24 -18 32 -18 8 0 14 -4 14 -8 0 -5 18 -15 40 -22 22 -7
40 -16 40 -19 0 -4 11 -8 26 -9 14 -1 33 -6 43 -12 10 -5 21 -7 24 -3 4 3 13
0 22 -7 11 -9 15 -9 15 -1 0 7 4 9 10 6 5 -3 35 -7 65 -7 41 -1 54 -5 51 -15
-3 -7 -1 -15 4 -18 6 -4 10 -17 10 -30 0 -13 4 -26 9 -29 5 -3 12 -17 15 -31
6 -22 41 -82 66 -112 5 -7 10 -18 10 -24 0 -7 2 -10 5 -7 3 3 29 -17 56 -45
46 -46 49 -52 34 -63 -12 -9 -14 -17 -7 -29 8 -16 11 -15 25 5 15 21 19 22 46
10 17 -7 31 -17 31 -22 0 -5 4 -7 9 -3 5 3 12 1 16 -5 4 -6 10 -8 15 -5 4 3
10 -2 14 -10 3 -8 12 -12 21 -9 8 3 15 1 15 -5 0 -6 8 -11 18 -11 10 0 28 -11
40 -25 21 -24 39 -25 67 -5 6 4 41 7 78 6 38 -1 70 2 73 5 2 4 12 6 22 4 9 -1
26 5 36 14 11 9 16 10 12 4 -4 -7 -2 -13 3 -13 6 0 11 5 11 11 0 6 6 9 13 6 6
-2 20 5 30 16 19 23 22 31 6 21 -8 -4 -8 0 0 15 7 12 8 21 2 21 -10 0 -9 19 2
38 5 6 4 12 -1 12 -5 0 -8 11 -7 25 2 14 0 25 -5 25 -4 0 -6 11 -5 25 2 14 0
25 -4 25 -4 0 -8 10 -8 22 -1 13 -7 24 -13 26 -5 2 -10 13 -10 24 0 10 -7 26
-15 35 -8 8 -13 19 -10 24 4 5 1 9 -4 9 -6 0 -11 7 -11 15 0 8 -7 15 -15 15
-9 0 -12 6 -8 17 4 9 2 14 -3 11 -9 -4 -55 38 -48 45 2 2 -7 10 -21 17 -14 7
-25 17 -25 22 0 4 -8 8 -17 8 -9 0 -13 3 -9 7 3 4 -12 15 -34 25 -22 10 -40
23 -40 28 0 6 -7 10 -15 10 -9 0 -32 9 -53 19 -20 10 -41 20 -47 21 -5 1 -14
4 -20 6 -5 2 -23 5 -40 8 -16 2 -30 5 -30 6 0 1 -29 3 -66 4 -72 3 -91 10 -82
31 3 9 -1 15 -8 15 -11 0 -11 3 1 10 8 5 10 10 4 10 -7 0 -15 7 -18 16 -4 9
-2 13 5 8 6 -3 4 5 -5 18 -9 14 -13 28 -9 31 3 4 -2 7 -13 7 -14 0 -16 2 -6 9
11 7 11 9 -2 14 -9 4 -16 16 -16 27 0 11 -4 20 -8 20 -5 0 -9 21 -10 48 -4 72
-9 83 -43 80 -16 -1 -29 -8 -29 -15 0 -11 -5 -11 -20 -3 -11 6 -19 15 -17 20
1 5 -13 25 -31 44 -29 31 -36 34 -54 25 -16 -9 -29 -7 -62 9 -41 21 -103 42
-134 46 -9 2 -17 7 -17 12 0 5 -5 17 -11 26 -9 17 -11 16 -32 -4z"/>
<path d="M2453 2157 c-30 -30 -29 -36 10 -79 17 -20 42 -48 55 -62 18 -22 26
-25 42 -16 36 19 41 44 15 74 -13 15 -38 45 -56 67 -17 21 -34 39 -38 38 -3 0
-16 -10 -28 -22z"/>
<path d="M2682 1864 c-19 -21 -15 -24 28 -24 46 0 52 14 12 28 -20 7 -31 6
-40 -4z"/>
<path d="M2886 1833 c-27 -8 -61 -27 -76 -42 -34 -34 -65 -91 -49 -91 8 0 8
-4 2 -12 -15 -19 -9 -72 10 -102 9 -14 17 -28 17 -30 0 -9 51 -56 60 -56 4 0
10 -3 12 -7 2 -5 17 -18 34 -30 23 -16 34 -19 43 -10 7 7 11 7 11 1 0 -13 39
-12 59 0 9 6 12 5 7 -2 -4 -6 6 -5 21 3 15 8 33 15 38 15 6 0 19 12 30 27 11
14 25 32 32 38 6 7 13 25 16 41 3 16 6 34 7 39 1 6 2 12 0 15 -1 3 -3 15 -6
28 -3 18 1 22 21 22 17 0 29 9 39 28 17 32 12 43 -26 59 -25 11 -29 10 -44
-12 l-17 -25 -28 27 c-56 56 -118 89 -145 79 -7 -3 -14 -1 -16 3 -2 5 -25 2
-52 -6z"/>
<path d="M3412 1385 c-13 -7 -28 -17 -33 -22 -12 -12 -1 -43 16 -43 18 0 55
35 55 53 0 22 -11 26 -38 12z"/>
<path d="M4611 2197 c-6 -6 -11 -17 -11 -23 0 -7 -9 -16 -20 -19 -41 -13 -18
-39 36 -43 39 -2 43 0 53 29 15 44 15 46 -18 57 -20 7 -32 7 -40 -1z"/>
<path d="M934 2055 c-8 -13 -13 -29 -9 -35 8 -13 146 -103 149 -98 18 25 36
54 36 59 0 8 -137 99 -150 99 -5 0 -17 -11 -26 -25z"/>
<path d="M815 854 c-22 -24 -42 -46 -44 -49 -6 -7 30 -45 42 -45 5 0 22 11 39
25 16 14 26 25 22 25 -5 0 2 7 14 16 24 17 29 43 10 62 -21 21 -42 12 -83 -34z"/>
<path d="M4980 4847 c-15 -12 -15 -55 0 -70 4 -5 17 -6 29 -2 21 6 23 25 6 68
-8 20 -15 21 -35 4z"/>
<path d="M457 4776 c-14 -15 -18 -73 -5 -69 4 1 21 -2 37 -7 32 -9 44 -1 55
35 4 16 -1 25 -23 38 -35 21 -45 21 -64 3z"/>
<path d="M969 4723 c-4 -57 8 -76 47 -78 30 -1 45 26 37 68 -5 24 -10 27 -44
27 -30 0 -39 -4 -40 -17z"/>
<path d="M130 4665 c1 -26 2 -28 11 -12 8 14 8 22 0 30 -8 8 -11 3 -11 -18z"/>
<path d="M3892 4637 c-5 -7 -19 -44 -30 -84 l-20 -71 22 -7 c45 -15 51 -11 73
55 12 36 22 72 23 82 0 21 -55 42 -68 25z"/>
<path d="M3233 4606 c-27 -12 -35 -37 -17 -54 11 -10 18 -10 34 0 36 23 21 71
-17 54z"/>
<path d="M1057 4583 c-22 -11 -26 -18 -17 -28 15 -18 72 1 68 23 -4 21 -18 22
-51 5z"/>
<path d="M3675 4488 c-13 -32 -13 -33 18 -49 18 -8 42 -22 55 -30 21 -13 24
-12 42 11 23 29 21 39 -6 54 -10 6 -21 13 -24 16 -10 10 -50 30 -60 30 -6 0
-17 -15 -25 -32z"/>
<path d="M5044 4507 c-2 -7 -3 -24 -1 -37 3 -21 10 -25 44 -28 61 -5 93 12 93
48 l0 30 -65 0 c-44 0 -67 -4 -71 -13z"/>
<path d="M552 4424 c3 -38 4 -39 46 -42 33 -2 42 -7 38 -18 -3 -8 -8 -20 -11
-27 -7 -16 27 -57 48 -57 24 0 27 26 5 50 -17 18 -18 24 -7 30 7 5 16 7 20 4
8 -5 19 45 12 62 -5 12 -37 21 -111 31 l-43 5 3 -38z"/>
<path d="M887 4422 c-23 -25 -21 -44 4 -66 21 -18 22 -17 43 5 27 30 29 39 9
62 -20 22 -36 22 -56 -1z"/>
<path d="M3211 4405 c0 -11 4 -29 9 -40 8 -18 9 -18 9 5 0 14 -4 32 -9 40 -8
12 -10 12 -9 -5z"/>
<path d="M5181 4386 c-16 -19 -4 -41 23 -44 30 -2 54 24 38 40 -17 17 -48 19
-61 4z"/>
<path d="M3526 4328 c7 -11 34 -10 34 1 0 6 -9 9 -19 8 -11 0 -17 -5 -15 -9z"/>
<path d="M3191 4260 c-49 -72 -51 -93 -11 -110 17 -7 32 -11 33 -9 2 2 22 32
45 67 23 34 42 67 42 72 0 11 -40 40 -56 40 -7 0 -31 -27 -53 -60z"/>
<path d="M1855 4283 c-8 -8 -15 -21 -15 -29 0 -9 -10 -14 -28 -14 -16 0 -36
-6 -46 -13 -17 -13 -17 -15 3 -56 19 -35 25 -41 44 -35 31 9 49 25 43 39 -3 8
4 10 19 7 20 -3 27 2 39 33 22 52 20 59 -14 72 -24 9 -33 9 -45 -4z"/>
<path d="M5713 4228 c-2 -5 -13 -8 -24 -8 -16 0 -19 -7 -19 -41 0 -38 2 -40
27 -37 24 3 28 -1 35 -37 11 -51 19 -58 57 -50 22 5 31 12 31 26 0 10 -4 19
-9 19 -5 0 -8 12 -6 26 1 16 -4 30 -16 37 -12 8 -19 23 -19 43 0 28 -3 32 -26
30 -14 0 -28 -4 -31 -8z"/>
<path d="M2498 4175 c-18 -41 25 -75 55 -42 19 20 19 38 0 53 -27 20 -42 17
-55 -11z"/>
<path d="M4895 4181 c-16 -4 -29 -10 -27 -14 1 -4 2 -31 2 -61 0 -58 14 -71
58 -55 20 7 22 14 19 64 -4 65 -11 74 -52 66z"/>
<path d="M4987 4163 c-10 -16 -18 -73 -11 -73 13 0 33 35 34 58 0 21 -14 30
-23 15z"/>
<path d="M3554 4145 c-7 -17 37 -58 49 -46 10 10 -15 61 -31 61 -7 0 -15 -7
-18 -15z"/>
<path d="M1018 4122 c-16 -2 -28 -8 -28 -13 0 -6 -25 -9 -60 -7 -63 3 -79 -6
-80 -43 0 -25 20 -36 81 -43 44 -6 58 -4 69 8 7 9 18 16 25 16 26 0 55 34 49
57 -7 25 -18 30 -56 25z"/>
<path d="M2286 4089 c-3 -18 -3 -36 1 -40 10 -9 116 -29 154 -29 25 0 27 3 26
38 -2 36 -3 37 -47 44 -131 22 -127 22 -134 -13z"/>
<path d="M2727 4107 c-9 -23 5 -67 20 -67 12 0 14 7 9 31 -3 17 -6 35 -6 40 0
14 -17 11 -23 -4z"/>
<path d="M3355 4086 c-26 -26 -26 -28 -9 -47 22 -24 46 -24 63 0 19 25 19 23
-6 50 l-22 23 -26 -26z"/>
<path d="M5184 4045 c-4 -8 -10 -12 -15 -9 -5 3 -9 -3 -9 -14 0 -20 33 -41 62
-40 25 2 33 47 11 64 -24 18 -42 17 -49 -1z"/>
<path d="M3742 3991 c-9 -24 -7 -32 7 -45 10 -9 29 -19 42 -21 13 -3 36 -10
52 -16 33 -14 53 -1 59 39 3 23 0 28 -18 30 -12 1 -43 11 -68 22 -61 26 -62
26 -74 -9z"/>
<path d="M1510 3969 c0 -35 15 -31 22 6 4 17 1 25 -8 25 -9 0 -14 -11 -14 -31z"/>
<path d="M3602 3978 c-18 -18 -15 -58 5 -65 9 -4 19 -1 21 5 2 7 8 12 13 12 5
0 9 -31 9 -70 0 -64 2 -70 21 -70 46 0 54 14 54 92 l0 73 -38 1 c-20 0 -37 -3
-37 -8 0 -4 -4 -8 -10 -8 -5 0 -9 10 -7 21 2 26 -14 34 -31 17z"/>
<path d="M3285 3910 c-20 -38 -20 -37 15 -55 38 -20 36 -20 55 17 15 31 15 33
-7 50 -32 25 -45 22 -63 -12z"/>
<path d="M4980 3915 c-7 -8 -9 -15 -6 -15 4 0 14 7 22 15 9 8 11 15 6 15 -5 0
-15 -7 -22 -15z"/>
<path d="M1092 3888 c-17 -17 -15 -32 6 -51 23 -21 48 -22 56 -1 8 22 9 20
-22 43 -22 15 -32 17 -40 9z"/>
<path d="M1670 3850 c0 -5 5 -10 12 -10 6 0 9 -3 5 -6 -8 -8 18 -34 33 -34 6
0 9 6 6 13 -3 6 -9 20 -12 30 -7 18 -44 24 -44 7z"/>
<path d="M1646 3742 c-11 -19 3 -72 20 -72 17 0 17 15 0 55 -8 20 -15 25 -20
17z"/>
<path d="M1289 3661 c-1 -11 -2 -29 -3 -38 -1 -12 10 -19 39 -25 22 -4 50 -10
61 -13 15 -3 29 -22 45 -62 21 -54 109 -162 109 -135 0 7 4 12 10 12 16 0 70
58 70 75 0 24 -24 12 -28 -13 -2 -12 -7 -22 -11 -22 -17 0 -63 68 -83 123 -20
55 -23 59 -50 55 -24 -4 -28 -1 -28 18 0 25 -11 31 -80 40 -46 6 -50 5 -51
-15z"/>
<path d="M5327 3487 c-31 -12 -32 -29 -4 -116 16 -51 27 -58 67 -41 l28 12
-14 51 c-20 70 -35 107 -43 106 -3 -1 -19 -6 -34 -12z"/>
<path d="M5481 3479 c-20 -19 -20 -22 -6 -56 16 -38 20 -83 7 -83 -11 0 -53
-90 -47 -100 3 -5 19 -15 35 -24 29 -14 30 -13 42 12 15 30 40 39 72 24 37
-17 97 -34 102 -29 3 2 7 20 10 39 l6 34 -65 22 c-36 12 -76 23 -91 24 -26 2
-37 18 -12 18 31 0 38 27 20 79 -21 56 -43 68 -73 40z"/>
<path d="M983 3441 c-24 -20 -15 -69 18 -89 19 -12 24 -11 42 7 20 19 20 21 3
59 -19 42 -33 47 -63 23z"/>
<path d="M4733 3429 c-5 -5 -19 -11 -31 -12 -11 0 -26 -12 -31 -25 -9 -19 -8
-28 7 -46 17 -23 21 -23 69 2 13 7 30 12 39 12 15 0 15 5 4 78 -1 7 -48 0 -57
-9z"/>
<path d="M1900 3302 c-16 -16 -27 -32 -23 -35 3 -4 1 -7 -5 -7 -7 0 -12 -9
-12 -20 0 -11 5 -20 11 -20 7 0 17 -7 23 -16 10 -14 14 -13 32 3 30 27 56 73
50 88 -3 8 -14 19 -25 25 -17 9 -26 6 -51 -18z"/>
<path d="M684 3287 c-8 -8 -8 -21 -2 -39 9 -26 14 -28 68 -28 33 0 62 -5 65
-10 10 -16 32 6 38 37 3 15 0 31 -7 37 -16 16 -148 19 -162 3z"/>
<path d="M4836 3268 c2 -3 0 -8 -5 -10 -5 -1 -11 -12 -13 -23 -1 -11 -11 -26
-21 -34 -38 -27 -36 -81 2 -81 6 0 11 -4 11 -9 0 -5 11 -11 25 -14 21 -3 29 1
41 25 13 25 13 30 -1 44 -8 8 -15 16 -15 17 0 1 21 3 47 5 26 2 49 5 51 7 10
10 7 56 -4 66 -14 12 -125 19 -118 7z"/>
<path d="M5655 3188 c-11 -6 -21 -12 -22 -13 -1 0 2 -18 8 -39 8 -28 14 -36
27 -32 9 3 29 8 44 12 25 5 27 10 23 37 -3 17 -8 34 -11 39 -7 11 -45 9 -69
-4z"/>
<path d="M4950 3125 c-7 -8 -10 -15 -6 -15 4 0 0 -12 -8 -27 -21 -42 -6 -71
32 -65 23 3 33 12 41 35 16 44 13 65 -8 77 -26 14 -36 13 -51 -5z"/>
<path d="M4641 3121 c-7 -5 -18 -19 -25 -32 -11 -22 -9 -26 36 -56 58 -40 69
-41 90 -5 18 30 10 52 -19 52 -7 0 -13 5 -13 10 0 6 -5 10 -12 10 -6 0 -19 7
-27 14 -10 9 -22 12 -30 7z"/>
<path d="M130 3066 c0 -48 0 -49 20 -31 24 22 24 24 0 55 l-20 25 0 -49z"/>
<path d="M1067 3041 c-17 -10 -26 -22 -23 -31 22 -67 32 -90 38 -90 5 0 8 -7
8 -15 0 -25 23 -65 37 -65 8 0 25 7 38 16 l24 16 -19 38 c-21 42 -28 88 -16
108 4 8 1 12 -10 12 -10 0 -25 6 -33 13 -14 12 -20 11 -44 -2z"/>
<path d="M5190 2981 c0 -7 -6 -11 -13 -8 -14 5 -39 -18 -29 -28 4 -4 7 -10 8
-13 0 -4 4 -14 7 -22 4 -8 11 -27 16 -42 19 -50 78 -31 66 21 -3 17 -6 33 -6
36 1 3 -3 11 -9 18 -6 6 -17 21 -25 32 -9 13 -14 15 -15 6z"/>
<path d="M4888 2915 c-5 -5 0 -66 5 -72 2 -2 122 -5 155 -4 21 1 23 5 20 39
l-3 37 -85 3 c-47 1 -89 0 -92 -3z"/>
<path d="M1712 2868 c-12 -16 2 -58 20 -58 22 1 54 24 53 39 0 25 -56 39 -73
19z"/>
<path d="M1195 2752 c-11 -11 -5 -43 10 -48 8 -4 13 -9 11 -13 -3 -4 4 -8 15
-8 30 -3 26 49 -6 63 -13 7 -26 9 -30 6z"/>
<path d="M5320 2687 c0 -13 40 -57 52 -57 18 0 15 34 -4 51 -27 22 -48 24 -48
6z"/>
<path d="M1353 2642 c-8 -14 -8 -19 1 -19 7 0 13 9 13 19 1 10 1 18 0 18 -1 0
-7 -8 -14 -18z"/>
<path d="M5436 2645 c-11 -8 -16 -21 -13 -30 4 -8 7 -19 8 -23 0 -4 5 -15 10
-24 6 -10 5 -19 -1 -23 -6 -4 -6 -13 -1 -23 5 -9 17 -36 27 -60 17 -43 44 -75
44 -53 0 6 6 11 14 11 29 0 37 25 21 71 -12 34 -13 44 -3 50 41 24 50 36 43
58 -6 20 -12 22 -41 16 -30 -5 -35 -3 -46 20 -13 28 -34 31 -62 10z"/>
<path d="M1642 2520 c-12 -11 -26 -20 -32 -20 -5 0 -10 -4 -10 -10 0 -5 -7
-10 -15 -10 -8 0 -15 -4 -15 -8 0 -5 -11 -14 -25 -20 -31 -14 -32 -34 -4 -66
17 -20 24 -22 34 -13 30 28 56 47 65 47 6 0 10 4 10 8 0 5 11 15 24 22 35 18
39 36 12 65 -23 24 -23 24 -44 5z"/>
<path d="M5398 2347 c-32 -13 -33 -18 -12 -72 8 -22 17 -48 21 -57 6 -20 19
-23 28 -8 3 6 14 10 25 10 18 0 34 23 23 34 -4 3 -14 27 -23 53 -18 52 -23 55
-62 40z"/>
<path d="M5240 2150 c0 -5 -7 -10 -15 -10 -8 0 -15 -4 -15 -10 0 -5 -6 -10
-14 -10 -8 0 -17 -9 -21 -19 -7 -23 14 -61 33 -61 14 0 50 19 69 37 16 14 17
43 2 43 -5 0 -8 4 -5 8 2 4 -4 13 -15 20 -11 7 -19 8 -19 2z"/>
<path d="M5096 1524 c-4 -9 -5 -18 -3 -20 10 -10 64 -13 76 -5 12 8 12 12 -2
25 -20 21 -63 21 -71 0z"/>
<path d="M2780 851 c0 -16 3 -43 6 -60 6 -27 10 -31 33 -27 14 2 31 5 37 5 7
1 10 17 7 44 -6 62 -9 67 -48 67 -32 0 -35 -3 -35 -29z"/>
<path d="M1417 765 c-4 -8 5 -21 20 -30 21 -14 27 -15 34 -4 4 7 7 14 6 14 -1
1 -14 9 -29 18 -22 13 -27 14 -31 2z"/>
<path d="M1750 483 c-26 -10 -29 -25 -14 -72 16 -50 17 -53 29 -93 8 -33 8
-32 45 -13 26 13 28 18 20 42 -4 16 -16 54 -26 86 -16 55 -23 62 -54 50z"/>
<path d="M3250 400 c-6 -11 -8 -25 -5 -30 15 -24 76 1 81 34 4 25 -62 22 -76
-4z"/>
<path d="M1214 385 c-8 -20 -5 -23 27 -28 35 -7 51 4 36 23 -17 21 -56 25 -63
5z"/>
<path d="M432 272 c-20 -3 -23 -9 -20 -40 2 -28 7 -37 21 -36 9 1 26 2 38 3
17 1 20 7 17 38 -3 37 -11 43 -56 35z"/>
</g>
</svg>
